<mxfile host="app.diagrams.net" modified="2023-07-16T15:29:24.234Z" agent="Mozilla/5.0 (Windows NT 10.0; Win64; x64; rv:109.0) Gecko/20100101 Firefox/115.0" etag="_W15o8dhryvcMPgODYm2" version="21.6.2">
  <diagram name="Seite-1" id="TG1YhUxTqGzAMKzzDfoQ">
    <mxGraphModel dx="995" dy="545" grid="1" gridSize="10" guides="1" tooltips="1" connect="1" arrows="1" fold="1" page="1" pageScale="1" pageWidth="827" pageHeight="1169" math="0" shadow="0">
      <root>
        <mxCell id="0" />
        <mxCell id="1" parent="0" />
        <mxCell id="qrsHivyOD9jfsJHmiuFn-7" value="Request (Quellcode)" style="endArrow=classic;html=1;rounded=0;exitX=1;exitY=0.25;exitDx=0;exitDy=0;entryX=0;entryY=0.25;entryDx=0;entryDy=0;" edge="1" parent="1" source="qrsHivyOD9jfsJHmiuFn-24" target="qrsHivyOD9jfsJHmiuFn-25">
          <mxGeometry width="50" height="50" relative="1" as="geometry">
            <mxPoint x="370" y="510" as="sourcePoint" />
            <mxPoint x="570" y="510" as="targetPoint" />
          </mxGeometry>
        </mxCell>
        <mxCell id="qrsHivyOD9jfsJHmiuFn-10" value="Response (Highlights)" style="endArrow=classic;html=1;rounded=0;entryX=1;entryY=0.75;entryDx=0;entryDy=0;exitX=0;exitY=0.75;exitDx=0;exitDy=0;" edge="1" parent="1" source="qrsHivyOD9jfsJHmiuFn-25" target="qrsHivyOD9jfsJHmiuFn-24">
          <mxGeometry width="50" height="50" relative="1" as="geometry">
            <mxPoint x="580" y="510" as="sourcePoint" />
            <mxPoint x="380" y="500" as="targetPoint" />
          </mxGeometry>
        </mxCell>
        <mxCell id="qrsHivyOD9jfsJHmiuFn-12" value="Extension" style="swimlane;whiteSpace=wrap;html=1;" vertex="1" parent="1">
          <mxGeometry x="160" y="280" width="240" height="280" as="geometry" />
        </mxCell>
        <mxCell id="qrsHivyOD9jfsJHmiuFn-14" value="extension.ts" style="swimlane;whiteSpace=wrap;html=1;" vertex="1" parent="qrsHivyOD9jfsJHmiuFn-12">
          <mxGeometry y="150" width="240" height="130" as="geometry" />
        </mxCell>
        <mxCell id="qrsHivyOD9jfsJHmiuFn-2" value="Setup and register handler" style="rounded=1;whiteSpace=wrap;html=1;" vertex="1" parent="qrsHivyOD9jfsJHmiuFn-14">
          <mxGeometry x="20" y="30" width="200" height="40" as="geometry" />
        </mxCell>
        <mxCell id="qrsHivyOD9jfsJHmiuFn-24" value="Handler (pushes tokens)" style="rounded=1;whiteSpace=wrap;html=1;" vertex="1" parent="qrsHivyOD9jfsJHmiuFn-14">
          <mxGeometry x="20" y="80" width="200" height="40" as="geometry" />
        </mxCell>
        <mxCell id="qrsHivyOD9jfsJHmiuFn-15" value="package.json" style="swimlane;whiteSpace=wrap;html=1;" vertex="1" parent="qrsHivyOD9jfsJHmiuFn-12">
          <mxGeometry y="23" width="240" height="127" as="geometry" />
        </mxCell>
        <mxCell id="qrsHivyOD9jfsJHmiuFn-32" value="configures extension" style="text;html=1;strokeColor=none;fillColor=none;align=center;verticalAlign=middle;whiteSpace=wrap;rounded=0;" vertex="1" parent="qrsHivyOD9jfsJHmiuFn-15">
          <mxGeometry x="10" y="30" width="220" height="90" as="geometry" />
        </mxCell>
        <mxCell id="qrsHivyOD9jfsJHmiuFn-13" value="Compiler" style="swimlane;whiteSpace=wrap;html=1;" vertex="1" parent="1">
          <mxGeometry x="520" y="280" width="240" height="280" as="geometry" />
        </mxCell>
        <mxCell id="qrsHivyOD9jfsJHmiuFn-16" value="Vertical Container" style="swimlane;whiteSpace=wrap;html=1;" vertex="1" parent="qrsHivyOD9jfsJHmiuFn-13">
          <mxGeometry y="23" width="240" height="130" as="geometry" />
        </mxCell>
        <mxCell id="qrsHivyOD9jfsJHmiuFn-29" value="Analyze sourcecode with help of ANTLR and capture code elements." style="text;html=1;strokeColor=none;fillColor=none;align=center;verticalAlign=middle;whiteSpace=wrap;rounded=0;" vertex="1" parent="qrsHivyOD9jfsJHmiuFn-16">
          <mxGeometry x="10" y="30" width="220" height="90" as="geometry" />
        </mxCell>
        <mxCell id="qrsHivyOD9jfsJHmiuFn-22" value="main.kt" style="swimlane;whiteSpace=wrap;html=1;" vertex="1" parent="qrsHivyOD9jfsJHmiuFn-13">
          <mxGeometry y="150" width="240" height="130" as="geometry" />
        </mxCell>
        <mxCell id="qrsHivyOD9jfsJHmiuFn-1" value="&lt;div&gt;Server (localhost:8000)&lt;/div&gt;" style="rounded=1;whiteSpace=wrap;html=1;" vertex="1" parent="qrsHivyOD9jfsJHmiuFn-22">
          <mxGeometry x="20" y="30" width="200" height="40" as="geometry" />
        </mxCell>
        <mxCell id="qrsHivyOD9jfsJHmiuFn-25" value="Statemachine (converts string index in line position)" style="rounded=1;whiteSpace=wrap;html=1;" vertex="1" parent="qrsHivyOD9jfsJHmiuFn-22">
          <mxGeometry x="20" y="80" width="200" height="40" as="geometry" />
        </mxCell>
        <mxCell id="qrsHivyOD9jfsJHmiuFn-23" value="Connect" style="endArrow=classic;startArrow=classic;html=1;rounded=0;entryX=0;entryY=0.5;entryDx=0;entryDy=0;exitX=1;exitY=0.5;exitDx=0;exitDy=0;" edge="1" parent="1" source="qrsHivyOD9jfsJHmiuFn-2" target="qrsHivyOD9jfsJHmiuFn-1">
          <mxGeometry width="50" height="50" relative="1" as="geometry">
            <mxPoint x="290" y="740" as="sourcePoint" />
            <mxPoint x="340" y="690" as="targetPoint" />
          </mxGeometry>
        </mxCell>
      </root>
    </mxGraphModel>
  </diagram>
</mxfile>
